<?xml version="1.0" encoding="UTF-8" standalone="no"?>
<!-- Created with Inkscape (http://www.inkscape.org/) -->

<svg
   xmlns:dc="http://purl.org/dc/elements/1.1/"
   xmlns:cc="http://creativecommons.org/ns#"
   xmlns:rdf="http://www.w3.org/1999/02/22-rdf-syntax-ns#"
   xmlns:svg="http://www.w3.org/2000/svg"
   xmlns="http://www.w3.org/2000/svg"
   xmlns:sodipodi="http://sodipodi.sourceforge.net/DTD/sodipodi-0.dtd"
   xmlns:inkscape="http://www.inkscape.org/namespaces/inkscape"
   width="26.081892mm"
   height="8.2020836mm"
   viewBox="0 0 26.081893 8.2020836"
   version="1.1"
   id="svg8"
   sodipodi:docname="a2b_logo_smooth.svg"
   inkscape:version="0.92.5 (2060ec1f9f, 2020-04-08)">
  <defs
     id="defs2" />
  <sodipodi:namedview
     id="base"
     pagecolor="#ffffff"
     bordercolor="#666666"
     borderopacity="1.0"
     inkscape:pageopacity="0.0"
     inkscape:pageshadow="2"
     inkscape:zoom="11.2"
     inkscape:cx="67.279778"
     inkscape:cy="11.412368"
     inkscape:document-units="mm"
     inkscape:current-layer="layer1"
     showgrid="false"
     inkscape:window-width="1920"
     inkscape:window-height="1017"
     inkscape:window-x="1912"
     inkscape:window-y="-8"
     inkscape:window-maximized="1" />
  <metadata
     id="metadata5">
    <rdf:RDF>
      <cc:Work
         rdf:about="">
        <dc:format>image/svg+xml</dc:format>
        <dc:type
           rdf:resource="http://purl.org/dc/dcmitype/StillImage" />
        <dc:title></dc:title>
      </cc:Work>
    </rdf:RDF>
  </metadata>
  <g
     inkscape:label="Layer 1"
     inkscape:groupmode="layer"
     id="layer1"
     transform="translate(-85.373069,-110.49017)">
    <path
       style="opacity:1;fill:#0087c1;fill-opacity:1;stroke:#0087c1;stroke-width:0.26458332;stroke-linecap:round;stroke-linejoin:round;stroke-miterlimit:4;stroke-dasharray:none;stroke-opacity:0.3137255;paint-order:stroke fill markers"
       d="m 89.474107,110.62246 c -2.191878,0 -3.968752,1.77687 -3.968746,3.96875 -6e-6,2.19188 1.776868,3.96875 3.968746,3.96875 0.439794,-0.002 0.876285,-0.076 1.291628,-0.22064 l -0.0012,-1.01457 v 0 l -0.0173,-2.80615 v 0 c -0.03286,-0.67614 -0.590083,-1.20131 -1.26701,-1.20169 -0.701149,1e-5 -1.269548,0.5684 -1.269553,1.26955 5e-6,0.70115 0.568404,1.26954 1.269553,1.26955 0.156752,-3e-5 0.312138,-0.0291 0.458306,-0.0857 v 1.8067 c -0.151599,0.0242 -0.304831,0.0368 -0.458354,0.0379 -1.669173,0 -3.022302,-1.35313 -3.022297,-3.0223 2.3e-5,-1.66915 1.353144,-3.02225 3.022297,-3.02224 1.663195,2.7e-4 3.013609,1.34435 3.021726,3.00753 1.1e-4,2.6e-4 2.66e-4,5.7e-4 2.66e-4,8.5e-4 v 0.01 l 1.59e-4,0.005 -1.59e-4,0.003 v 2.55414 c 0.605706,-0.71509 0.938825,-1.62145 0.940375,-2.55858 7e-6,-2.19188 -1.77687,-3.96876 -3.968752,-3.96875 z"
       id="path826-1"
       inkscape:connector-curvature="0"
       sodipodi:nodetypes="cccccccccccccccccsccccccc" />
    <path
       style="opacity:1;fill:#eb5a2d;fill-opacity:1;stroke:#eb5a2d;stroke-width:0.26458332;stroke-linecap:round;stroke-linejoin:round;stroke-miterlimit:4;stroke-dasharray:none;stroke-opacity:0.3137255;paint-order:stroke fill markers"
       d="m 107.35393,118.55996 c 2.19188,0 3.96875,-1.77687 3.96874,-3.96875 1e-5,-2.19188 -1.77686,-3.96875 -3.96874,-3.96875 -0.43979,0.002 -0.87628,0.0761 -1.29162,0.22065 l 9.4e-4,1.01457 v 0 l 0.0173,2.80614 v 0 c 0.0329,0.67613 0.59008,1.20133 1.267,1.2017 0.70115,-2e-5 1.26955,-0.5684 1.26955,-1.26955 0,-0.70117 -0.5684,-1.26955 -1.26955,-1.26956 -0.15674,3e-5 -0.31213,0.0291 -0.4583,0.0857 v -1.8067 c 0.1516,-0.0242 0.30483,-0.0368 0.45835,-0.0378 1.66919,0 3.02231,1.35313 3.0223,3.0223 -2e-5,1.66914 -1.35315,3.02225 -3.0223,3.02224 -1.66319,-2.7e-4 -3.01361,-1.34434 -3.02172,-3.00752 0,-2.7e-4 -2.7e-4,-5.7e-4 -2.7e-4,-8.5e-4 v -0.01 l -2.6e-4,-0.005 2.6e-4,-0.003 v -2.55413 c -0.6057,0.71508 -0.93882,1.62145 -0.94038,2.55857 -1e-5,2.19188 1.77688,3.96876 3.96876,3.96875 z"
       id="path826-8-3"
       inkscape:connector-curvature="0"
       sodipodi:nodetypes="cccccccccccccccccsccccccc" />
    <path
       inkscape:connector-curvature="0"
       style="opacity:1;fill:#8bbd3a;fill-opacity:1;stroke:#8bbd3a;stroke-width:0.26458332;stroke-linecap:round;stroke-linejoin:round;stroke-miterlimit:4;stroke-dasharray:none;stroke-opacity:0.3137255;paint-order:stroke fill markers"
       d="m 98.300978,111.27356 c -0.511311,0 -1.101723,0.46334 -0.850491,1.05826 0.187335,0.44361 0.464438,0.63301 0.464438,0.63301 l -1.095461,1.34243 c 0,0 -1.282248,-1.01456 -1.113132,-2.59471 8.5e-4,-0.008 0.0017,-0.0165 0.0023,-0.0248 a 3.9687521,3.9687521 0 0 0 -1.267922,2.90349 3.9687521,3.9687521 0 0 0 1.388203,3.01331 l -0.02814,-0.84085 c 0,0 1.486463,-1.7546 2.051518,-2.44247 0.565053,-0.68786 1.391365,-1.76471 1.391365,-1.76471 0,0 0.218399,-0.39769 -0.02522,-0.81951 0,0 -0.187763,-0.46341 -0.917531,-0.46341 z m 2.689232,0.30456 c 0.0102,0.0355 0.16013,0.58491 -0.0542,1.38468 -0.23228,0.86686 -2.429754,3.25806 -2.429754,3.25806 h 2.675174 v 1.20992 a 3.9687521,3.9687521 0 0 0 1.19675,-2.83957 3.9687521,3.9687521 0 0 0 -1.38801,-3.01309 z m -4.734005,6.34239 a 3.9687521,3.9687521 0 0 0 2.153257,0.63945 3.9687521,3.9687521 0 0 0 2.158668,-0.63945 z"
       id="path908-0" />
  </g>
</svg>
